0
SECTION
2
HEADER
9
$ACADVER
1
AC1015
9
$DWGCODEPAGE
3
ANSI_949
9
$PDMODE
70
35
9
$PDSIZE
40
-1
9
$EXTNAMES
290
1
9
$VIEWCTR
10
200022.5
20
440010
9
$VIEWSIZE
40
51.74999999999999
0
ENDSEC
0
SECTION
2
TABLES
0
TABLE
2
VPORT
5
8
330
0
100
AcDbSymbolTable
70
1
0
VPORT
5
1A
330
8
100
AcDbSymbolTableRecord
100
AcDbViewportTableRecord
2
*ACTIVE
70
0
10
0
20
0
11
1
21
1
12
200022.5
22
440010
16
0
26
0
36
1
17
0
27
0
37
0
40
50
41
1.6
45
51.74999999999999
0
ENDTAB
0
TABLE
2
LTYPE
5
5
330
0
100
AcDbSymbolTable
70
1
0
LTYPE
5
14
330
5
100
AcDbSymbolTableRecord
100
AcDbLinetypeTableRecord
2
Continuous
70
0
3
Solid line
72
65
73
0
40
0
0
ENDTAB
0
TABLE
2
LAYER
5
2
330
0
100
AcDbSymbolTable
70
4
0
LAYER
5
10
330
2
100
AcDbSymbolTableRecord
100
AcDbLayerTableRecord
2
0
70
0
62
7
6
Continuous
0
LAYER
5
30
330
2
100
AcDbSymbolTableRecord
100
AcDbLayerTableRecord
2
0-연속지적도
70
0
62
7
6
Continuous
0
LAYER
5
31
330
2
100
AcDbSymbolTableRecord
100
AcDbLayerTableRecord
2
0-지적도근점
70
0
62
7
6
Continuous
0
LAYER
5
32
330
2
100
AcDbSymbolTableRecord
100
AcDbLayerTableRecord
2
0-건물
70
0
62
7
6
Continuous
0
ENDTAB
0
TABLE
2
STYLE
5
6
330
0
100
AcDbSymbolTable
70
1
0
STYLE
5
16
330
6
100
AcDbSymbolTableRecord
100
AcDbTextStyleTableRecord
2
Standard
70
0
40
0
41
1
50
0
71
0
42
1
3
malgun.ttf
4

0
ENDTAB
0
TABLE
2
BLOCK_RECORD
5
7
330
0
100
AcDbSymbolTable
70
1
0
BLOCK_RECORD
5
1F
330
7
100
AcDbSymbolTableRecord
100
AcDbBlockTableRecord
2
*Model_Space
0
ENDTAB
0
ENDSEC
0
SECTION
2
BLOCKS
0
BLOCK
5
20
330
1F
100
AcDbEntity
8
0
100
AcDbBlockBegin
2
*Model_Space
70
0
10
0
20
0
30
0
3
*Model_Space
1

0
ENDBLK
5
21
330
1F
100
AcDbEntity
8
0
100
AcDbBlockEnd
0
ENDSEC
0
SECTION
2
ENTITIES
0
LWPOLYLINE
5
33
330
1F
100
AcDbEntity
8
0-연속지적도
100
AcDbPolyline
90
5
70
1
10
200000
20
440000
10
200020
20
440000
10
200020
20
440020
10
200000
20
440020
10
200000
20
440000
0
TEXT
5
34
330
1F
100
AcDbEntity
8
0-연속지적도
100
AcDbText
10
200010
20
440010
40
2.5
1
123-4
100
AcDbText
0
POINT
5
35
330
1F
100
AcDbEntity
8
0-지적도근점
100
AcDbPoint
10
200005
20
440005
0
TEXT
5
36
330
1F
100
AcDbEntity
8
0-지적도근점
100
AcDbText
10
200005
20
440005
40
2.5
1
도근점 1
100
AcDbText
0
SOLID
5
37
330
1F
100
AcDbEntity
8
0-건물
100
AcDbTrace
10
200030
20
440000
30
0
11
200030
21
440006
31
0
12
200032
22
440002
32
0
13
200032
23
440002
33
0
0
SOLID
5
38
330
1F
100
AcDbEntity
8
0-건물
100
AcDbTrace
10
200032
20
440004
30
0
11
200032
21
440002
31
0
12
200030
22
440006
32
0
13
200030
23
440006
33
0
0
SOLID
5
39
330
1F
100
AcDbEntity
8
0-건물
100
AcDbTrace
10
200036
20
440000
30
0
11
200030
21
440000
31
0
12
200032
22
440002
32
0
13
200032
23
440002
33
0
0
SOLID
5
3A
330
1F
100
AcDbEntity
8
0-건물
100
AcDbTrace
10
200034
20
440004
30
0
11
200032
21
440004
31
0
12
200030
22
440006
32
0
13
200030
23
440006
33
0
0
SOLID
5
3B
330
1F
100
AcDbEntity
8
0-건물
100
AcDbTrace
10
200036
20
440000
30
0
11
200032
21
440002
31
0
12
200034
22
440002
32
0
13
200034
23
440002
33
0
0
SOLID
5
3C
330
1F
100
AcDbEntity
8
0-건물
100
AcDbTrace
10
200034
20
440004
30
0
11
200030
21
440006
31
0
12
200036
22
440006
32
0
13
200036
23
440006
33
0
0
SOLID
5
3D
330
1F
100
AcDbEntity
8
0-건물
100
AcDbTrace
10
200036
20
440006
30
0
11
200036
21
440000
31
0
12
200034
22
440002
32
0
13
200034
23
440002
33
0
0
SOLID
5
3E
330
1F
100
AcDbEntity
8
0-건물
100
AcDbTrace
10
200034
20
440002
30
0
11
200034
21
440004
31
0
12
200036
22
440006
32
0
13
200036
23
440006
33
0
0
SOLID
5
3F
330
1F
100
AcDbEntity
8
0-건물
100
AcDbTrace
10
200039
20
440000
30
0
11
200039
21
440006
31
0
12
200045
22
440006
32
0
13
200045
23
440006
33
0
0
SOLID
5
40
330
1F
100
AcDbEntity
8
0-건물
100
AcDbTrace
10
200045
20
440006
30
0
11
200045
21
440000
31
0
12
200039
22
440000
32
0
13
200039
23
440000
33
0
0
LWPOLYLINE
5
41
330
1F
100
AcDbEntity
8
0-건물
100
AcDbPolyline
90
5
70
1
10
200030
20
440000
10
200036
20
440000
10
200036
20
440006
10
200030
20
440006
10
200030
20
440000
0
LWPOLYLINE
5
42
330
1F
100
AcDbEntity
8
0-건물
100
AcDbPolyline
90
5
70
1
10
200032
20
440002
10
200034
20
440002
10
200034
20
440004
10
200032
20
440004
10
200032
20
440002
0
LWPOLYLINE
5
43
330
1F
100
AcDbEntity
8
0-건물
100
AcDbPolyline
90
5
70
1
10
200039
20
440000
10
200045
20
440000
10
200045
20
440006
10
200039
20
440006
10
200039
20
440000
0
ENDSEC
0
EOF
